<svg width="24" height="21" viewBox="0 0 24 21" fill="none" xmlns="http://www.w3.org/2000/svg">
<path d="M19.3429 19.9853C20.9973 19.8821 21.7128 19.0962 21.8744 17.3213C22 15.9386 22.0464 15.2473 22.1083 13.8628C22.1823 12.2118 23.0164 11.2608 23.8212 10.8188C24.0637 10.6812 24.062 10.363 23.8212 10.21C22.982 9.70436 22.1685 8.62949 22.1049 7.20894C22.043 5.8503 21.9965 5.17098 21.8727 3.81234C21.6973 1.8982 21.0902 1.28939 19.434 1.18448C14.4836 0.914335 9.52203 0.914335 4.57155 1.18448C2.9171 1.28939 2.3083 1.8982 2.13288 3.81234C2.00905 5.17098 1.96262 5.8503 1.9007 7.20894C1.83535 8.62949 1.02361 9.70436 0.184346 10.21C0.129366 10.2396 0.083426 10.2835 0.0514035 10.3371C0.019381 10.3907 0.00247192 10.452 0.00247192 10.5144C0.00247192 10.5768 0.019381 10.6381 0.0514035 10.6917C0.083426 10.7453 0.129366 10.7892 0.184346 10.8188C0.990931 11.247 1.82331 12.1964 1.89726 13.8628C1.95918 15.2456 2.00561 15.9369 2.13116 17.3213C2.29282 19.0962 3.00825 19.8821 4.6627 19.9853C9.56756 20.2484 14.4397 20.2484 19.3429 19.9853ZM11.9632 16.9155C10.455 16.9997 8.57524 16.262 7.50037 15.2043C7.28883 15.0099 7.20284 14.7692 7.19768 14.5301C7.19252 14.3392 7.23724 14.1328 7.37654 13.9746C7.52616 13.7786 7.60183 13.6805 7.75146 13.4845C7.94063 13.2471 8.14701 13.1371 8.38778 13.1388C8.65951 13.1405 8.91748 13.254 9.19265 13.4329C10.0629 14.0004 11.0208 14.3272 12.1696 14.3272C13.0467 14.3272 13.8516 13.8302 13.757 13.1973C13.3821 10.6864 7.15813 12.1327 7.251 7.92953C7.30087 5.71787 9.51081 4.16661 11.6795 4.21993C13.3597 4.26292 14.684 4.75135 15.6488 5.37391C15.8895 5.53729 16.0564 5.86061 16.0632 6.1805C16.0667 6.37311 16.0237 6.54681 15.9153 6.70676C15.8035 6.87874 15.7485 6.96301 15.635 7.13498C15.4321 7.42047 15.193 7.56322 14.8886 7.5615C14.6805 7.5615 14.4552 7.47894 14.2145 7.36544C13.4921 6.99224 12.7423 6.79619 11.8325 6.79619C10.8918 6.79619 10.2589 7.40155 10.326 7.84526C10.7009 10.3338 16.7494 8.87198 16.8337 13.0167C16.8853 15.5758 14.1543 16.8897 11.9598 16.9172L11.9632 16.9155Z" fill="#FF269E"/>
</svg>
